<?xml version="1.0" encoding="UTF-8"?>
<svg id="Layer_1" xmlns="http://www.w3.org/2000/svg" version="1.1" viewBox="0 0 96 48">
  <!-- Generator: Adobe Illustrator 29.4.0, SVG Export Plug-In . SVG Version: 2.1.0 Build 152)  -->
  <defs>
    <style>
      .st0 {
        fill: #1337ea;
      }
    </style>
  </defs>
  <g>
    <path class="st0" d="M28.52,20.11v8.88h-2.38v-8.88h-3.18v-2.05h8.73v2.05h-3.17Z"/>
    <path class="st0" d="M30.57,24.89c0-2.35,2-4.28,4.46-4.28s4.49,1.93,4.49,4.28-2.03,4.29-4.49,4.29-4.46-1.91-4.46-4.29ZM32.77,24.89c0,1.36.97,2.35,2.26,2.35s2.26-1.02,2.26-2.35-.99-2.32-2.26-2.32-2.26,1.02-2.26,2.32Z"/>
    <path class="st0" d="M42.66,17.69v6.58l2.8-3.45h2.74l-3.3,3.83,3.44,4.35h-2.71l-2.15-2.69-.81.93v1.76h-2.24v-11.3h2.24Z"/>
    <path class="st0" d="M48.21,24.91c0-3.38,2.93-4.28,4.47-4.28,2.11,0,4.22,1.43,4.29,4.08,0,.63-.05,1.03-.05,1.03h-6.49c.27,1.35,1.79,1.5,2.24,1.5,1.24,0,1.85-.67,2.11-.96l1.73,1c-.33.45-1.43,1.91-3.84,1.91-1.6,0-4.47-.91-4.47-4.29h0ZM50.5,24.16h4.11c-.09-.75-.82-1.57-1.94-1.57-1.29,0-2.08.73-2.17,1.57Z"/>
    <path class="st0" d="M65.69,24.13v4.86h-2.29v-4.86c0-1.27-.72-1.66-1.58-1.66-.61,0-1.61.37-1.57,2.17v4.35h-2.23v-8.22h2.23v.73c.55-.55,1.47-.88,2.2-.88,2.38,0,3.24,1.37,3.24,3.51h0Z"/>
    <path class="st0" d="M76.11,21.98c0,2.15-1.5,3.83-4.43,3.83h-2.06v3.18h-2.36v-10.93h4.44c2.75,0,4.41,1.75,4.41,3.92h0ZM73.73,21.98c0-.93-.67-1.87-1.94-1.87h-2.17v3.65h2.41c1.18,0,1.7-.88,1.7-1.78h0Z"/>
    <path class="st0" d="M82.86,28.17c-.34.46-1.33,1-2.5,1-2.6,0-4.13-1.93-4.13-4.29s1.53-4.29,4.13-4.29c1.2,0,2.08.48,2.5,1.03v-.85h2.21v8.22h-2.21v-.82h0ZM80.7,22.54c-1.42,0-2.26.99-2.26,2.33s.88,2.32,2.26,2.32,2.26-.88,2.26-2.32c0-1.36-.87-2.33-2.26-2.33Z"/>
    <path class="st0" d="M87.75,32.07l1.42-3.38-3.53-7.89h2.59l2.08,5.23,1.91-5.23h2.59l-4.59,11.27h-2.47,0Z"/>
  </g>
  <g>
    <path class="st0" d="M20.47,21.5c-.25-3.17-2.79-5.72-5.97-5.97-.17-.01-.35-.02-.52-.02-2.08,0-3.92.98-5.12,2.49,3.73.55,6.68,3.73,6.88,7.55.05.96-.08,1.92-.36,2.82,2.92-.64,5.1-3.24,5.1-6.35,0-.17-.01-.35-.02-.52Z"/>
    <path class="st0" d="M7.7,19.47c-3.59,0-6.51,2.92-6.51,6.51s2.92,6.51,6.51,6.51,6.51-2.92,6.51-6.51-2.92-6.51-6.51-6.51ZM9.01,27.28l-1.29,2.38-1.29-2.38-2.38-1.29,2.38-1.29,1.29-2.38,1.29,2.38,2.38,1.29s-2.38,1.29-2.38,1.29Z"/>
  </g>
</svg>